<mxfile host="app.diagrams.net" modified="2024-04-26T22:46:32.519Z" agent="Mozilla/5.0 (Windows NT 10.0; Win64; x64; rv:125.0) Gecko/20100101 Firefox/125.0" etag="FUEx0eI_EjWI1ZRUhQQh" version="24.2.7" type="device">
  <diagram name="Page-1" id="5YFs4T9YeiseG2GhVlGZ">
    <mxGraphModel dx="3613" dy="2367" grid="1" gridSize="10" guides="1" tooltips="1" connect="1" arrows="1" fold="1" page="1" pageScale="1" pageWidth="583" pageHeight="827" math="0" shadow="0">
      <root>
        <mxCell id="0" />
        <mxCell id="1" parent="0" />
        <mxCell id="jXPvE5CnvF_hMQH7UL35-1" value="&lt;u&gt;NOME&lt;/u&gt;" style="rounded=0;whiteSpace=wrap;html=1;" parent="1" vertex="1">
          <mxGeometry x="80" y="760" width="120" height="60" as="geometry" />
        </mxCell>
        <mxCell id="jXPvE5CnvF_hMQH7UL35-2" value="AEMAIL" style="rounded=0;whiteSpace=wrap;html=1;" parent="1" vertex="1">
          <mxGeometry x="200" y="760" width="120" height="60" as="geometry" />
        </mxCell>
        <mxCell id="jXPvE5CnvF_hMQH7UL35-3" value="N MICROCHIPS" style="rounded=0;whiteSpace=wrap;html=1;" parent="1" vertex="1">
          <mxGeometry x="1160" y="760" width="120" height="60" as="geometry" />
        </mxCell>
        <mxCell id="jXPvE5CnvF_hMQH7UL35-4" value="ALTURA" style="rounded=0;whiteSpace=wrap;html=1;" parent="1" vertex="1">
          <mxGeometry x="440" y="760" width="120" height="60" as="geometry" />
        </mxCell>
        <mxCell id="jXPvE5CnvF_hMQH7UL35-5" value="IDADE" style="rounded=0;whiteSpace=wrap;html=1;" parent="1" vertex="1">
          <mxGeometry x="560" y="760" width="120" height="60" as="geometry" />
        </mxCell>
        <mxCell id="jXPvE5CnvF_hMQH7UL35-6" value="PESO" style="rounded=0;whiteSpace=wrap;html=1;" parent="1" vertex="1">
          <mxGeometry x="680" y="760" width="120" height="60" as="geometry" />
        </mxCell>
        <mxCell id="jXPvE5CnvF_hMQH7UL35-7" value="ORIGEM/HISTORIA" style="rounded=0;whiteSpace=wrap;html=1;" parent="1" vertex="1">
          <mxGeometry x="800" y="760" width="120" height="60" as="geometry" />
        </mxCell>
        <mxCell id="jXPvE5CnvF_hMQH7UL35-8" value="&lt;div&gt;DATA ENTRADA&lt;/div&gt;&lt;div&gt;&lt;br&gt;&lt;/div&gt;" style="rounded=0;whiteSpace=wrap;html=1;" parent="1" vertex="1">
          <mxGeometry x="920" y="760" width="120" height="60" as="geometry" />
        </mxCell>
        <mxCell id="jXPvE5CnvF_hMQH7UL35-9" value="ANIMAL" style="text;html=1;align=center;verticalAlign=middle;resizable=0;points=[];autosize=1;strokeColor=none;fillColor=none;" parent="1" vertex="1">
          <mxGeometry x="-14" y="768" width="70" height="30" as="geometry" />
        </mxCell>
        <mxCell id="jXPvE5CnvF_hMQH7UL35-10" value="PK" style="text;html=1;align=center;verticalAlign=middle;resizable=0;points=[];autosize=1;strokeColor=none;fillColor=none;" parent="1" vertex="1">
          <mxGeometry x="160" y="790" width="40" height="30" as="geometry" />
        </mxCell>
        <mxCell id="jXPvE5CnvF_hMQH7UL35-11" value="&lt;u&gt;DATA&lt;/u&gt;" style="rounded=0;whiteSpace=wrap;html=1;" parent="1" vertex="1">
          <mxGeometry x="30" y="1440" width="120" height="60" as="geometry" />
        </mxCell>
        <mxCell id="jXPvE5CnvF_hMQH7UL35-12" value="ANOME" style="rounded=0;whiteSpace=wrap;html=1;" parent="1" vertex="1">
          <mxGeometry x="150" y="1440" width="120" height="60" as="geometry" />
        </mxCell>
        <mxCell id="jXPvE5CnvF_hMQH7UL35-13" value="PATOLOGIA" style="rounded=0;whiteSpace=wrap;html=1;" parent="1" vertex="1">
          <mxGeometry x="270" y="1440" width="120" height="60" as="geometry" />
        </mxCell>
        <mxCell id="jXPvE5CnvF_hMQH7UL35-14" value="MEDICACAO" style="rounded=0;whiteSpace=wrap;html=1;" parent="1" vertex="1">
          <mxGeometry x="390" y="1440" width="120" height="60" as="geometry" />
        </mxCell>
        <mxCell id="jXPvE5CnvF_hMQH7UL35-15" value="PK" style="text;html=1;align=center;verticalAlign=middle;resizable=0;points=[];autosize=1;strokeColor=none;fillColor=none;" parent="1" vertex="1">
          <mxGeometry x="110" y="1470" width="40" height="30" as="geometry" />
        </mxCell>
        <mxCell id="jXPvE5CnvF_hMQH7UL35-17" value="FK" style="text;html=1;align=center;verticalAlign=middle;resizable=0;points=[];autosize=1;strokeColor=none;fillColor=none;" parent="1" vertex="1">
          <mxGeometry x="240" y="1470" width="40" height="30" as="geometry" />
        </mxCell>
        <mxCell id="jXPvE5CnvF_hMQH7UL35-20" value="&lt;div&gt;HISTORIAL&lt;/div&gt;&lt;div&gt;CLINICO&lt;br&gt;&lt;/div&gt;" style="text;html=1;align=center;verticalAlign=middle;resizable=0;points=[];autosize=1;strokeColor=none;fillColor=none;" parent="1" vertex="1">
          <mxGeometry x="-79" y="1460" width="90" height="40" as="geometry" />
        </mxCell>
        <mxCell id="jXPvE5CnvF_hMQH7UL35-22" value="Altura" style="rounded=0;whiteSpace=wrap;html=1;" parent="1" vertex="1">
          <mxGeometry x="1040" y="760" width="120" height="60" as="geometry" />
        </mxCell>
        <mxCell id="jXPvE5CnvF_hMQH7UL35-23" value="FK" style="text;html=1;align=center;verticalAlign=middle;resizable=0;points=[];autosize=1;strokeColor=none;fillColor=none;" parent="1" vertex="1">
          <mxGeometry x="280" y="790" width="40" height="30" as="geometry" />
        </mxCell>
        <mxCell id="jXPvE5CnvF_hMQH7UL35-24" value="ANOME" style="rounded=0;whiteSpace=wrap;html=1;" parent="1" vertex="1">
          <mxGeometry x="80" y="935" width="120" height="60" as="geometry" />
        </mxCell>
        <mxCell id="jXPvE5CnvF_hMQH7UL35-25" value="DDATA" style="rounded=0;whiteSpace=wrap;html=1;" parent="1" vertex="1">
          <mxGeometry x="200" y="935" width="120" height="60" as="geometry" />
        </mxCell>
        <mxCell id="jXPvE5CnvF_hMQH7UL35-26" value="TEM" style="text;html=1;align=center;verticalAlign=middle;resizable=0;points=[];autosize=1;strokeColor=none;fillColor=none;" parent="1" vertex="1">
          <mxGeometry x="-14" y="950" width="50" height="30" as="geometry" />
        </mxCell>
        <mxCell id="jXPvE5CnvF_hMQH7UL35-27" value="" style="endArrow=classic;html=1;rounded=0;exitX=0.5;exitY=0;exitDx=0;exitDy=0;entryX=0.5;entryY=1;entryDx=0;entryDy=0;" parent="1" source="jXPvE5CnvF_hMQH7UL35-24" target="jXPvE5CnvF_hMQH7UL35-1" edge="1">
          <mxGeometry width="50" height="50" relative="1" as="geometry">
            <mxPoint x="440" y="1050" as="sourcePoint" />
            <mxPoint x="490" y="1000" as="targetPoint" />
          </mxGeometry>
        </mxCell>
        <mxCell id="jXPvE5CnvF_hMQH7UL35-28" value="FK" style="text;html=1;align=center;verticalAlign=middle;resizable=0;points=[];autosize=1;strokeColor=none;fillColor=none;" parent="1" vertex="1">
          <mxGeometry x="160" y="965" width="40" height="30" as="geometry" />
        </mxCell>
        <mxCell id="jXPvE5CnvF_hMQH7UL35-29" value="FK" style="text;html=1;align=center;verticalAlign=middle;resizable=0;points=[];autosize=1;strokeColor=none;fillColor=none;" parent="1" vertex="1">
          <mxGeometry x="280" y="970" width="40" height="30" as="geometry" />
        </mxCell>
        <mxCell id="jXPvE5CnvF_hMQH7UL35-30" value="&lt;u&gt;DATA&lt;/u&gt;" style="rounded=0;whiteSpace=wrap;html=1;" parent="1" vertex="1">
          <mxGeometry x="70" y="1090" width="120" height="60" as="geometry" />
        </mxCell>
        <mxCell id="jXPvE5CnvF_hMQH7UL35-31" value="DESPARASITANTE" style="rounded=0;whiteSpace=wrap;html=1;" parent="1" vertex="1">
          <mxGeometry x="190" y="1090" width="120" height="60" as="geometry" />
        </mxCell>
        <mxCell id="jXPvE5CnvF_hMQH7UL35-32" value="DESPARATISACAO" style="text;html=1;align=center;verticalAlign=middle;resizable=0;points=[];autosize=1;strokeColor=none;fillColor=none;" parent="1" vertex="1">
          <mxGeometry x="-84" y="1105" width="140" height="30" as="geometry" />
        </mxCell>
        <mxCell id="jXPvE5CnvF_hMQH7UL35-33" value="" style="endArrow=classic;html=1;rounded=0;exitX=0.5;exitY=1;exitDx=0;exitDy=0;entryX=0.75;entryY=0;entryDx=0;entryDy=0;" parent="1" source="jXPvE5CnvF_hMQH7UL35-25" target="jXPvE5CnvF_hMQH7UL35-30" edge="1">
          <mxGeometry width="50" height="50" relative="1" as="geometry">
            <mxPoint x="139.66" y="1085" as="sourcePoint" />
            <mxPoint x="139.66" y="970" as="targetPoint" />
          </mxGeometry>
        </mxCell>
        <mxCell id="jXPvE5CnvF_hMQH7UL35-34" value="PK" style="text;html=1;align=center;verticalAlign=middle;resizable=0;points=[];autosize=1;strokeColor=none;fillColor=none;" parent="1" vertex="1">
          <mxGeometry x="150" y="1120" width="40" height="30" as="geometry" />
        </mxCell>
        <mxCell id="jXPvE5CnvF_hMQH7UL35-35" value="INTERNA" style="text;html=1;align=center;verticalAlign=middle;resizable=0;points=[];autosize=1;strokeColor=none;fillColor=none;" parent="1" vertex="1">
          <mxGeometry x="-80" y="1240" width="80" height="30" as="geometry" />
        </mxCell>
        <mxCell id="jXPvE5CnvF_hMQH7UL35-36" value="DDATA" style="rounded=0;whiteSpace=wrap;html=1;" parent="1" vertex="1">
          <mxGeometry x="40" y="1230" width="120" height="60" as="geometry" />
        </mxCell>
        <mxCell id="jXPvE5CnvF_hMQH7UL35-37" value="DESPARASITANTE" style="rounded=0;whiteSpace=wrap;html=1;" parent="1" vertex="1">
          <mxGeometry x="160" y="1230" width="120" height="60" as="geometry" />
        </mxCell>
        <mxCell id="jXPvE5CnvF_hMQH7UL35-38" value="EXTERNA" style="text;html=1;align=center;verticalAlign=middle;resizable=0;points=[];autosize=1;strokeColor=none;fillColor=none;" parent="1" vertex="1">
          <mxGeometry x="-70" y="1340" width="80" height="30" as="geometry" />
        </mxCell>
        <mxCell id="jXPvE5CnvF_hMQH7UL35-39" value="DDATA" style="rounded=0;whiteSpace=wrap;html=1;" parent="1" vertex="1">
          <mxGeometry x="36" y="1340" width="120" height="60" as="geometry" />
        </mxCell>
        <mxCell id="jXPvE5CnvF_hMQH7UL35-40" value="DESPARASITANTE" style="rounded=0;whiteSpace=wrap;html=1;" parent="1" vertex="1">
          <mxGeometry x="156" y="1340" width="120" height="60" as="geometry" />
        </mxCell>
        <mxCell id="jXPvE5CnvF_hMQH7UL35-42" value="FK" style="text;html=1;align=center;verticalAlign=middle;resizable=0;points=[];autosize=1;strokeColor=none;fillColor=none;" parent="1" vertex="1">
          <mxGeometry x="120" y="1370" width="40" height="30" as="geometry" />
        </mxCell>
        <mxCell id="jXPvE5CnvF_hMQH7UL35-43" value="FK" style="text;html=1;align=center;verticalAlign=middle;resizable=0;points=[];autosize=1;strokeColor=none;fillColor=none;" parent="1" vertex="1">
          <mxGeometry x="120" y="1260" width="40" height="30" as="geometry" />
        </mxCell>
        <mxCell id="jXPvE5CnvF_hMQH7UL35-44" value="" style="endArrow=classic;html=1;rounded=0;exitX=0.466;exitY=-0.03;exitDx=0;exitDy=0;exitPerimeter=0;entryX=0.137;entryY=1.033;entryDx=0;entryDy=0;entryPerimeter=0;" parent="1" source="jXPvE5CnvF_hMQH7UL35-39" target="jXPvE5CnvF_hMQH7UL35-30" edge="1">
          <mxGeometry width="50" height="50" relative="1" as="geometry">
            <mxPoint x="150" y="1375" as="sourcePoint" />
            <mxPoint y="1210" as="targetPoint" />
            <Array as="points">
              <mxPoint x="20" y="1300" />
              <mxPoint y="1220" />
            </Array>
          </mxGeometry>
        </mxCell>
        <mxCell id="jXPvE5CnvF_hMQH7UL35-45" value="" style="endArrow=classic;html=1;rounded=0;exitX=0.491;exitY=-0.071;exitDx=0;exitDy=0;entryX=0.5;entryY=1;entryDx=0;entryDy=0;exitPerimeter=0;" parent="1" source="jXPvE5CnvF_hMQH7UL35-36" target="jXPvE5CnvF_hMQH7UL35-30" edge="1">
          <mxGeometry width="50" height="50" relative="1" as="geometry">
            <mxPoint x="180" y="1305" as="sourcePoint" />
            <mxPoint x="80" y="1400" as="targetPoint" />
          </mxGeometry>
        </mxCell>
        <mxCell id="jXPvE5CnvF_hMQH7UL35-46" value="" style="endArrow=classic;html=1;rounded=0;exitX=0.5;exitY=0;exitDx=0;exitDy=0;entryX=-0.08;entryY=1.008;entryDx=0;entryDy=0;entryPerimeter=0;" parent="1" source="jXPvE5CnvF_hMQH7UL35-12" target="jXPvE5CnvF_hMQH7UL35-10" edge="1">
          <mxGeometry width="50" height="50" relative="1" as="geometry">
            <mxPoint x="314.5" y="1416" as="sourcePoint" />
            <mxPoint x="490" y="930" as="targetPoint" />
            <Array as="points">
              <mxPoint x="330" y="1400" />
              <mxPoint x="450" y="1390" />
              <mxPoint x="530" y="980" />
              <mxPoint x="230" y="890" />
            </Array>
          </mxGeometry>
        </mxCell>
        <mxCell id="p6_uh3EXNi-pG8DUvjZT-1" value="ANOME" style="rounded=0;whiteSpace=wrap;html=1;" vertex="1" parent="1">
          <mxGeometry x="30" y="1590" width="120" height="60" as="geometry" />
        </mxCell>
        <mxCell id="p6_uh3EXNi-pG8DUvjZT-2" value="VDATA" style="rounded=0;whiteSpace=wrap;html=1;" vertex="1" parent="1">
          <mxGeometry x="150" y="1590" width="120" height="60" as="geometry" />
        </mxCell>
        <mxCell id="p6_uh3EXNi-pG8DUvjZT-3" value="TEM" style="text;html=1;align=center;verticalAlign=middle;resizable=0;points=[];autosize=1;strokeColor=none;fillColor=none;" vertex="1" parent="1">
          <mxGeometry x="-50" y="1605" width="50" height="30" as="geometry" />
        </mxCell>
        <mxCell id="p6_uh3EXNi-pG8DUvjZT-4" value="" style="endArrow=classic;html=1;rounded=0;exitX=0;exitY=0;exitDx=0;exitDy=0;entryX=0;entryY=1;entryDx=0;entryDy=0;" edge="1" parent="1" source="p6_uh3EXNi-pG8DUvjZT-1" target="jXPvE5CnvF_hMQH7UL35-1">
          <mxGeometry width="50" height="50" relative="1" as="geometry">
            <mxPoint x="-130" y="1570" as="sourcePoint" />
            <mxPoint x="-140" y="780" as="targetPoint" />
            <Array as="points">
              <mxPoint x="-180" y="1430" />
              <mxPoint x="-230" y="1190" />
            </Array>
          </mxGeometry>
        </mxCell>
        <mxCell id="p6_uh3EXNi-pG8DUvjZT-5" value="&lt;u&gt;DATA&lt;/u&gt;" style="rounded=0;whiteSpace=wrap;html=1;" vertex="1" parent="1">
          <mxGeometry x="30" y="1750" width="120" height="60" as="geometry" />
        </mxCell>
        <mxCell id="p6_uh3EXNi-pG8DUvjZT-6" value="TIPO" style="rounded=0;whiteSpace=wrap;html=1;" vertex="1" parent="1">
          <mxGeometry x="150" y="1750" width="120" height="60" as="geometry" />
        </mxCell>
        <mxCell id="p6_uh3EXNi-pG8DUvjZT-7" value="DOSE" style="rounded=0;whiteSpace=wrap;html=1;" vertex="1" parent="1">
          <mxGeometry x="270" y="1750" width="120" height="60" as="geometry" />
        </mxCell>
        <mxCell id="p6_uh3EXNi-pG8DUvjZT-8" value="VACINA" style="text;html=1;align=center;verticalAlign=middle;resizable=0;points=[];autosize=1;strokeColor=none;fillColor=none;" vertex="1" parent="1">
          <mxGeometry x="-60" y="1765" width="70" height="30" as="geometry" />
        </mxCell>
        <mxCell id="p6_uh3EXNi-pG8DUvjZT-9" value="" style="endArrow=classic;html=1;rounded=0;exitX=0.5;exitY=1;exitDx=0;exitDy=0;entryX=0.5;entryY=0;entryDx=0;entryDy=0;" edge="1" parent="1" source="p6_uh3EXNi-pG8DUvjZT-2" target="p6_uh3EXNi-pG8DUvjZT-5">
          <mxGeometry width="50" height="50" relative="1" as="geometry">
            <mxPoint x="109" y="1236" as="sourcePoint" />
            <mxPoint x="140" y="1160" as="targetPoint" />
          </mxGeometry>
        </mxCell>
        <mxCell id="p6_uh3EXNi-pG8DUvjZT-10" value="&lt;u&gt;EMAIL&lt;/u&gt;" style="rounded=0;whiteSpace=wrap;html=1;" vertex="1" parent="1">
          <mxGeometry x="90" y="600" width="120" height="60" as="geometry" />
        </mxCell>
        <mxCell id="p6_uh3EXNi-pG8DUvjZT-11" value="TELEFONE" style="rounded=0;whiteSpace=wrap;html=1;" vertex="1" parent="1">
          <mxGeometry x="210" y="600" width="120" height="60" as="geometry" />
        </mxCell>
        <mxCell id="p6_uh3EXNi-pG8DUvjZT-12" value="NOME" style="rounded=0;whiteSpace=wrap;html=1;" vertex="1" parent="1">
          <mxGeometry x="330" y="600" width="120" height="60" as="geometry" />
        </mxCell>
        <mxCell id="p6_uh3EXNi-pG8DUvjZT-13" value="ENDERECO" style="rounded=0;whiteSpace=wrap;html=1;" vertex="1" parent="1">
          <mxGeometry x="440" y="600" width="120" height="60" as="geometry" />
        </mxCell>
        <mxCell id="p6_uh3EXNi-pG8DUvjZT-15" value="" style="endArrow=classic;html=1;rounded=0;exitX=0.5;exitY=0;exitDx=0;exitDy=0;entryX=0.5;entryY=1;entryDx=0;entryDy=0;" edge="1" parent="1" source="jXPvE5CnvF_hMQH7UL35-2" target="p6_uh3EXNi-pG8DUvjZT-10">
          <mxGeometry width="50" height="50" relative="1" as="geometry">
            <mxPoint x="250" y="760" as="sourcePoint" />
            <mxPoint x="220" y="675" as="targetPoint" />
          </mxGeometry>
        </mxCell>
        <mxCell id="p6_uh3EXNi-pG8DUvjZT-16" value="ABRIGO" style="text;html=1;align=center;verticalAlign=middle;resizable=0;points=[];autosize=1;strokeColor=none;fillColor=none;" vertex="1" parent="1">
          <mxGeometry x="-24" y="615" width="70" height="30" as="geometry" />
        </mxCell>
        <mxCell id="p6_uh3EXNi-pG8DUvjZT-17" value="&lt;u&gt;NIF&lt;/u&gt;" style="rounded=0;whiteSpace=wrap;html=1;" vertex="1" parent="1">
          <mxGeometry x="80" y="450" width="120" height="60" as="geometry" />
        </mxCell>
        <mxCell id="p6_uh3EXNi-pG8DUvjZT-18" value="AID" style="rounded=0;whiteSpace=wrap;html=1;" vertex="1" parent="1">
          <mxGeometry x="320" y="760" width="120" height="60" as="geometry" />
        </mxCell>
        <mxCell id="p6_uh3EXNi-pG8DUvjZT-19" value="EMAIL" style="rounded=0;whiteSpace=wrap;html=1;" vertex="1" parent="1">
          <mxGeometry x="680" y="450" width="120" height="60" as="geometry" />
        </mxCell>
        <mxCell id="p6_uh3EXNi-pG8DUvjZT-20" value="ENDRECO" style="rounded=0;whiteSpace=wrap;html=1;" vertex="1" parent="1">
          <mxGeometry x="560" y="450" width="120" height="60" as="geometry" />
        </mxCell>
        <mxCell id="p6_uh3EXNi-pG8DUvjZT-21" value="NOME" style="rounded=0;whiteSpace=wrap;html=1;" vertex="1" parent="1">
          <mxGeometry x="440" y="450" width="120" height="60" as="geometry" />
        </mxCell>
        <mxCell id="p6_uh3EXNi-pG8DUvjZT-22" value="TELEFONE" style="rounded=0;whiteSpace=wrap;html=1;" vertex="1" parent="1">
          <mxGeometry x="320" y="450" width="120" height="60" as="geometry" />
        </mxCell>
        <mxCell id="p6_uh3EXNi-pG8DUvjZT-23" value="AEMAIL" style="rounded=0;whiteSpace=wrap;html=1;" vertex="1" parent="1">
          <mxGeometry x="200" y="450" width="120" height="60" as="geometry" />
        </mxCell>
        <mxCell id="p6_uh3EXNi-pG8DUvjZT-24" value="PK" style="text;html=1;align=center;verticalAlign=middle;resizable=0;points=[];autosize=1;strokeColor=none;fillColor=none;" vertex="1" parent="1">
          <mxGeometry x="170" y="630" width="40" height="30" as="geometry" />
        </mxCell>
        <mxCell id="p6_uh3EXNi-pG8DUvjZT-25" value="" style="endArrow=classic;html=1;rounded=0;exitX=0;exitY=0;exitDx=0;exitDy=0;entryX=0.5;entryY=1;entryDx=0;entryDy=0;" edge="1" parent="1" source="p6_uh3EXNi-pG8DUvjZT-10" target="p6_uh3EXNi-pG8DUvjZT-23">
          <mxGeometry width="50" height="50" relative="1" as="geometry">
            <mxPoint x="270" y="770" as="sourcePoint" />
            <mxPoint x="160" y="670" as="targetPoint" />
          </mxGeometry>
        </mxCell>
        <mxCell id="p6_uh3EXNi-pG8DUvjZT-26" value="PK" style="text;html=1;align=center;verticalAlign=middle;resizable=0;points=[];autosize=1;strokeColor=none;fillColor=none;" vertex="1" parent="1">
          <mxGeometry x="160" y="480" width="40" height="30" as="geometry" />
        </mxCell>
        <mxCell id="p6_uh3EXNi-pG8DUvjZT-28" value="PK" style="text;html=1;align=center;verticalAlign=middle;resizable=0;points=[];autosize=1;strokeColor=none;fillColor=none;" vertex="1" parent="1">
          <mxGeometry x="116" y="1780" width="40" height="30" as="geometry" />
        </mxCell>
        <mxCell id="p6_uh3EXNi-pG8DUvjZT-29" value="FK" style="text;html=1;align=center;verticalAlign=middle;resizable=0;points=[];autosize=1;strokeColor=none;fillColor=none;" vertex="1" parent="1">
          <mxGeometry x="116" y="1620" width="40" height="30" as="geometry" />
        </mxCell>
        <mxCell id="p6_uh3EXNi-pG8DUvjZT-30" value="FK" style="text;html=1;align=center;verticalAlign=middle;resizable=0;points=[];autosize=1;strokeColor=none;fillColor=none;" vertex="1" parent="1">
          <mxGeometry x="240" y="1624" width="40" height="30" as="geometry" />
        </mxCell>
        <mxCell id="p6_uh3EXNi-pG8DUvjZT-31" value="FK" style="text;html=1;align=center;verticalAlign=middle;resizable=0;points=[];autosize=1;strokeColor=none;fillColor=none;" vertex="1" parent="1">
          <mxGeometry x="280" y="480" width="40" height="30" as="geometry" />
        </mxCell>
        <mxCell id="p6_uh3EXNi-pG8DUvjZT-32" value="PESSOA" style="text;html=1;align=center;verticalAlign=middle;resizable=0;points=[];autosize=1;strokeColor=none;fillColor=none;" vertex="1" parent="1">
          <mxGeometry x="-29" y="465" width="80" height="30" as="geometry" />
        </mxCell>
        <mxCell id="p6_uh3EXNi-pG8DUvjZT-33" value="ADOTANTE" style="text;html=1;align=center;verticalAlign=middle;resizable=0;points=[];autosize=1;strokeColor=none;fillColor=none;" vertex="1" parent="1">
          <mxGeometry x="-50" y="320" width="90" height="30" as="geometry" />
        </mxCell>
        <mxCell id="p6_uh3EXNi-pG8DUvjZT-34" value="NIF" style="rounded=0;whiteSpace=wrap;html=1;" vertex="1" parent="1">
          <mxGeometry x="190" y="305" width="120" height="60" as="geometry" />
        </mxCell>
        <mxCell id="p6_uh3EXNi-pG8DUvjZT-35" value="&lt;u&gt;ID&lt;/u&gt;" style="rounded=0;whiteSpace=wrap;html=1;" vertex="1" parent="1">
          <mxGeometry x="70" y="305" width="120" height="60" as="geometry" />
        </mxCell>
        <mxCell id="p6_uh3EXNi-pG8DUvjZT-36" value="AEMAIL" style="rounded=0;whiteSpace=wrap;html=1;" vertex="1" parent="1">
          <mxGeometry x="310" y="305" width="120" height="60" as="geometry" />
        </mxCell>
        <mxCell id="p6_uh3EXNi-pG8DUvjZT-37" value="TELEFONE" style="rounded=0;whiteSpace=wrap;html=1;" vertex="1" parent="1">
          <mxGeometry x="430" y="305" width="120" height="60" as="geometry" />
        </mxCell>
        <mxCell id="p6_uh3EXNi-pG8DUvjZT-38" value="NOME" style="rounded=0;whiteSpace=wrap;html=1;" vertex="1" parent="1">
          <mxGeometry x="550" y="305" width="120" height="60" as="geometry" />
        </mxCell>
        <mxCell id="p6_uh3EXNi-pG8DUvjZT-39" value="ENDRECO" style="rounded=0;whiteSpace=wrap;html=1;" vertex="1" parent="1">
          <mxGeometry x="670" y="305" width="120" height="60" as="geometry" />
        </mxCell>
        <mxCell id="p6_uh3EXNi-pG8DUvjZT-40" value="EMAIL" style="rounded=0;whiteSpace=wrap;html=1;" vertex="1" parent="1">
          <mxGeometry x="790" y="305" width="120" height="60" as="geometry" />
        </mxCell>
        <mxCell id="p6_uh3EXNi-pG8DUvjZT-41" value="&lt;div&gt;DATA&lt;/div&gt;&lt;div&gt;ADOCAO&lt;br&gt;&lt;/div&gt;" style="rounded=0;whiteSpace=wrap;html=1;" vertex="1" parent="1">
          <mxGeometry x="910" y="305" width="120" height="60" as="geometry" />
        </mxCell>
        <mxCell id="p6_uh3EXNi-pG8DUvjZT-42" value="FK" style="text;html=1;align=center;verticalAlign=middle;resizable=0;points=[];autosize=1;strokeColor=none;fillColor=none;" vertex="1" parent="1">
          <mxGeometry x="272" y="335" width="40" height="30" as="geometry" />
        </mxCell>
        <mxCell id="p6_uh3EXNi-pG8DUvjZT-43" value="FK" style="text;html=1;align=center;verticalAlign=middle;resizable=0;points=[];autosize=1;strokeColor=none;fillColor=none;" vertex="1" parent="1">
          <mxGeometry x="390" y="335" width="40" height="30" as="geometry" />
        </mxCell>
        <mxCell id="p6_uh3EXNi-pG8DUvjZT-44" value="PK" style="text;html=1;align=center;verticalAlign=middle;resizable=0;points=[];autosize=1;strokeColor=none;fillColor=none;" vertex="1" parent="1">
          <mxGeometry x="150" y="335" width="40" height="30" as="geometry" />
        </mxCell>
        <mxCell id="p6_uh3EXNi-pG8DUvjZT-45" value="" style="endArrow=classic;html=1;rounded=0;exitX=0.5;exitY=1;exitDx=0;exitDy=0;entryX=0.5;entryY=0;entryDx=0;entryDy=0;" edge="1" parent="1">
          <mxGeometry width="50" height="50" relative="1" as="geometry">
            <mxPoint x="280" y="365" as="sourcePoint" />
            <mxPoint x="170" y="450" as="targetPoint" />
          </mxGeometry>
        </mxCell>
        <mxCell id="p6_uh3EXNi-pG8DUvjZT-46" value="" style="endArrow=classic;html=1;rounded=0;exitX=0.5;exitY=1;exitDx=0;exitDy=0;entryX=0.119;entryY=-0.006;entryDx=0;entryDy=0;entryPerimeter=0;" edge="1" parent="1" source="p6_uh3EXNi-pG8DUvjZT-36" target="p6_uh3EXNi-pG8DUvjZT-10">
          <mxGeometry width="50" height="50" relative="1" as="geometry">
            <mxPoint x="260" y="375" as="sourcePoint" />
            <mxPoint x="960" y="440" as="targetPoint" />
            <Array as="points">
              <mxPoint x="750" y="420" />
              <mxPoint x="1070" y="510" />
              <mxPoint x="470" y="540" />
              <mxPoint x="270" y="540" />
            </Array>
          </mxGeometry>
        </mxCell>
        <mxCell id="p6_uh3EXNi-pG8DUvjZT-47" value="FK" style="text;html=1;align=center;verticalAlign=middle;resizable=0;points=[];autosize=1;strokeColor=none;fillColor=none;" vertex="1" parent="1">
          <mxGeometry x="400" y="790" width="40" height="30" as="geometry" />
        </mxCell>
        <mxCell id="p6_uh3EXNi-pG8DUvjZT-48" value="" style="endArrow=classic;html=1;rounded=0;exitX=0.5;exitY=0;exitDx=0;exitDy=0;entryX=0.25;entryY=1;entryDx=0;entryDy=0;" edge="1" parent="1" source="p6_uh3EXNi-pG8DUvjZT-18" target="p6_uh3EXNi-pG8DUvjZT-35">
          <mxGeometry width="50" height="50" relative="1" as="geometry">
            <mxPoint x="270" y="770" as="sourcePoint" />
            <mxPoint x="-190" y="570" as="targetPoint" />
            <Array as="points">
              <mxPoint x="-150" y="670" />
              <mxPoint x="-120" y="480" />
            </Array>
          </mxGeometry>
        </mxCell>
        <mxCell id="p6_uh3EXNi-pG8DUvjZT-49" value="FUNCIONARIO" style="text;html=1;align=center;verticalAlign=middle;resizable=0;points=[];autosize=1;strokeColor=none;fillColor=none;" vertex="1" parent="1">
          <mxGeometry x="-84" y="170" width="110" height="30" as="geometry" />
        </mxCell>
        <mxCell id="p6_uh3EXNi-pG8DUvjZT-50" value="&lt;div&gt;&lt;u&gt;NUMERO FUNCIONARIO&lt;/u&gt;&lt;/div&gt;&lt;div&gt;&lt;u&gt;&lt;br&gt;&lt;/u&gt;&lt;/div&gt;" style="rounded=0;whiteSpace=wrap;html=1;" vertex="1" parent="1">
          <mxGeometry x="46" y="155" width="120" height="60" as="geometry" />
        </mxCell>
        <mxCell id="p6_uh3EXNi-pG8DUvjZT-51" value="NIF" style="rounded=0;whiteSpace=wrap;html=1;" vertex="1" parent="1">
          <mxGeometry x="166" y="155" width="120" height="60" as="geometry" />
        </mxCell>
        <mxCell id="p6_uh3EXNi-pG8DUvjZT-52" value="AEMAIL" style="rounded=0;whiteSpace=wrap;html=1;" vertex="1" parent="1">
          <mxGeometry x="286" y="155" width="120" height="60" as="geometry" />
        </mxCell>
        <mxCell id="p6_uh3EXNi-pG8DUvjZT-53" value="TELEFONE" style="rounded=0;whiteSpace=wrap;html=1;" vertex="1" parent="1">
          <mxGeometry x="406" y="155" width="120" height="60" as="geometry" />
        </mxCell>
        <mxCell id="p6_uh3EXNi-pG8DUvjZT-54" value="NOME" style="rounded=0;whiteSpace=wrap;html=1;" vertex="1" parent="1">
          <mxGeometry x="526" y="155" width="120" height="60" as="geometry" />
        </mxCell>
        <mxCell id="p6_uh3EXNi-pG8DUvjZT-55" value="ENDRECO" style="rounded=0;whiteSpace=wrap;html=1;" vertex="1" parent="1">
          <mxGeometry x="646" y="155" width="120" height="60" as="geometry" />
        </mxCell>
        <mxCell id="p6_uh3EXNi-pG8DUvjZT-56" value="EMAIL" style="rounded=0;whiteSpace=wrap;html=1;" vertex="1" parent="1">
          <mxGeometry x="766" y="155" width="120" height="60" as="geometry" />
        </mxCell>
        <mxCell id="p6_uh3EXNi-pG8DUvjZT-58" value="HORARIO" style="rounded=0;whiteSpace=wrap;html=1;" vertex="1" parent="1">
          <mxGeometry x="886" y="155" width="120" height="60" as="geometry" />
        </mxCell>
        <mxCell id="p6_uh3EXNi-pG8DUvjZT-59" value="PK" style="text;html=1;align=center;verticalAlign=middle;resizable=0;points=[];autosize=1;strokeColor=none;fillColor=none;" vertex="1" parent="1">
          <mxGeometry x="130" y="185" width="40" height="30" as="geometry" />
        </mxCell>
        <mxCell id="p6_uh3EXNi-pG8DUvjZT-60" value="FK" style="text;html=1;align=center;verticalAlign=middle;resizable=0;points=[];autosize=1;strokeColor=none;fillColor=none;" vertex="1" parent="1">
          <mxGeometry x="246" y="185" width="40" height="30" as="geometry" />
        </mxCell>
        <mxCell id="p6_uh3EXNi-pG8DUvjZT-61" value="FK" style="text;html=1;align=center;verticalAlign=middle;resizable=0;points=[];autosize=1;strokeColor=none;fillColor=none;" vertex="1" parent="1">
          <mxGeometry x="370" y="180" width="40" height="30" as="geometry" />
        </mxCell>
        <mxCell id="p6_uh3EXNi-pG8DUvjZT-62" value="" style="endArrow=classic;html=1;rounded=0;exitX=0.5;exitY=1;exitDx=0;exitDy=0;entryX=0.5;entryY=0;entryDx=0;entryDy=0;" edge="1" parent="1" source="p6_uh3EXNi-pG8DUvjZT-51" target="p6_uh3EXNi-pG8DUvjZT-17">
          <mxGeometry width="50" height="50" relative="1" as="geometry">
            <mxPoint x="260" y="375" as="sourcePoint" />
            <mxPoint x="150" y="460" as="targetPoint" />
            <Array as="points">
              <mxPoint x="-150" y="290" />
            </Array>
          </mxGeometry>
        </mxCell>
        <mxCell id="p6_uh3EXNi-pG8DUvjZT-63" value="" style="endArrow=classic;html=1;rounded=0;exitX=0.5;exitY=1;exitDx=0;exitDy=0;entryX=0.25;entryY=0;entryDx=0;entryDy=0;" edge="1" parent="1" source="p6_uh3EXNi-pG8DUvjZT-52" target="p6_uh3EXNi-pG8DUvjZT-10">
          <mxGeometry width="50" height="50" relative="1" as="geometry">
            <mxPoint x="380" y="375" as="sourcePoint" />
            <mxPoint x="190" y="610" as="targetPoint" />
            <Array as="points">
              <mxPoint x="840" y="270" />
              <mxPoint x="1080" y="270" />
              <mxPoint x="1280" y="420" />
              <mxPoint x="1090" y="520" />
              <mxPoint x="870" y="550" />
              <mxPoint x="490" y="560" />
              <mxPoint x="290" y="560" />
            </Array>
          </mxGeometry>
        </mxCell>
        <mxCell id="p6_uh3EXNi-pG8DUvjZT-65" value="DOADOR" style="text;html=1;align=center;verticalAlign=middle;resizable=0;points=[];autosize=1;strokeColor=none;fillColor=none;" vertex="1" parent="1">
          <mxGeometry x="-80" y="30" width="80" height="30" as="geometry" />
        </mxCell>
        <mxCell id="p6_uh3EXNi-pG8DUvjZT-66" value="&lt;u&gt;ID&lt;/u&gt;" style="rounded=0;whiteSpace=wrap;html=1;" vertex="1" parent="1">
          <mxGeometry x="40" y="15" width="120" height="60" as="geometry" />
        </mxCell>
        <mxCell id="p6_uh3EXNi-pG8DUvjZT-67" value="NIF" style="rounded=0;whiteSpace=wrap;html=1;" vertex="1" parent="1">
          <mxGeometry x="160" y="15" width="120" height="60" as="geometry" />
        </mxCell>
        <mxCell id="p6_uh3EXNi-pG8DUvjZT-68" value="AEMAIL" style="rounded=0;whiteSpace=wrap;html=1;" vertex="1" parent="1">
          <mxGeometry x="280" y="15" width="120" height="60" as="geometry" />
        </mxCell>
        <mxCell id="p6_uh3EXNi-pG8DUvjZT-69" value="TELEFONE" style="rounded=0;whiteSpace=wrap;html=1;" vertex="1" parent="1">
          <mxGeometry x="400" y="15" width="120" height="60" as="geometry" />
        </mxCell>
        <mxCell id="p6_uh3EXNi-pG8DUvjZT-70" value="NOME" style="rounded=0;whiteSpace=wrap;html=1;" vertex="1" parent="1">
          <mxGeometry x="520" y="15" width="120" height="60" as="geometry" />
        </mxCell>
        <mxCell id="p6_uh3EXNi-pG8DUvjZT-71" value="ENDRECO" style="rounded=0;whiteSpace=wrap;html=1;" vertex="1" parent="1">
          <mxGeometry x="640" y="15" width="120" height="60" as="geometry" />
        </mxCell>
        <mxCell id="p6_uh3EXNi-pG8DUvjZT-72" value="EMAIL" style="rounded=0;whiteSpace=wrap;html=1;" vertex="1" parent="1">
          <mxGeometry x="760" y="15" width="120" height="60" as="geometry" />
        </mxCell>
        <mxCell id="p6_uh3EXNi-pG8DUvjZT-73" value="&lt;div&gt;&lt;u&gt;NUMERO&lt;/u&gt;&lt;/div&gt;&lt;div&gt;&lt;u&gt;TRATADOR&lt;br&gt;&lt;/u&gt;&lt;/div&gt;" style="rounded=0;whiteSpace=wrap;html=1;" vertex="1" parent="1">
          <mxGeometry x="36" y="-130" width="120" height="60" as="geometry" />
        </mxCell>
        <mxCell id="p6_uh3EXNi-pG8DUvjZT-74" value="PK" style="text;html=1;align=center;verticalAlign=middle;resizable=0;points=[];autosize=1;strokeColor=none;fillColor=none;" vertex="1" parent="1">
          <mxGeometry x="126" y="45" width="40" height="30" as="geometry" />
        </mxCell>
        <mxCell id="p6_uh3EXNi-pG8DUvjZT-76" value="FK" style="text;html=1;align=center;verticalAlign=middle;resizable=0;points=[];autosize=1;strokeColor=none;fillColor=none;" vertex="1" parent="1">
          <mxGeometry x="240" y="45" width="40" height="30" as="geometry" />
        </mxCell>
        <mxCell id="p6_uh3EXNi-pG8DUvjZT-77" value="FK" style="text;html=1;align=center;verticalAlign=middle;resizable=0;points=[];autosize=1;strokeColor=none;fillColor=none;" vertex="1" parent="1">
          <mxGeometry x="360" y="45" width="40" height="30" as="geometry" />
        </mxCell>
        <mxCell id="p6_uh3EXNi-pG8DUvjZT-78" value="" style="endArrow=classic;html=1;rounded=0;exitX=0.5;exitY=1;exitDx=0;exitDy=0;entryX=0.25;entryY=0;entryDx=0;entryDy=0;" edge="1" parent="1" source="p6_uh3EXNi-pG8DUvjZT-67" target="p6_uh3EXNi-pG8DUvjZT-17">
          <mxGeometry width="50" height="50" relative="1" as="geometry">
            <mxPoint x="236" y="225" as="sourcePoint" />
            <mxPoint x="120" y="460" as="targetPoint" />
            <Array as="points">
              <mxPoint x="-90" y="170" />
              <mxPoint x="-180" y="300" />
              <mxPoint x="-100" y="390" />
            </Array>
          </mxGeometry>
        </mxCell>
        <mxCell id="p6_uh3EXNi-pG8DUvjZT-79" value="" style="endArrow=classic;html=1;rounded=0;exitX=0.5;exitY=1;exitDx=0;exitDy=0;entryX=0.5;entryY=0;entryDx=0;entryDy=0;" edge="1" parent="1" source="p6_uh3EXNi-pG8DUvjZT-68" target="p6_uh3EXNi-pG8DUvjZT-10">
          <mxGeometry width="50" height="50" relative="1" as="geometry">
            <mxPoint x="356" y="225" as="sourcePoint" />
            <mxPoint x="160" y="610" as="targetPoint" />
            <Array as="points">
              <mxPoint x="860" y="130" />
              <mxPoint x="1130" y="120" />
              <mxPoint x="1290" y="430" />
              <mxPoint x="1120" y="530" />
              <mxPoint x="880" y="560" />
              <mxPoint x="500" y="570" />
              <mxPoint x="300" y="570" />
            </Array>
          </mxGeometry>
        </mxCell>
        <mxCell id="p6_uh3EXNi-pG8DUvjZT-80" value="NIF" style="rounded=0;whiteSpace=wrap;html=1;" vertex="1" parent="1">
          <mxGeometry x="156" y="-130" width="120" height="60" as="geometry" />
        </mxCell>
        <mxCell id="p6_uh3EXNi-pG8DUvjZT-81" value="AEMAIL" style="rounded=0;whiteSpace=wrap;html=1;" vertex="1" parent="1">
          <mxGeometry x="276" y="-130" width="120" height="60" as="geometry" />
        </mxCell>
        <mxCell id="p6_uh3EXNi-pG8DUvjZT-82" value="TELEFONE" style="rounded=0;whiteSpace=wrap;html=1;" vertex="1" parent="1">
          <mxGeometry x="396" y="-130" width="120" height="60" as="geometry" />
        </mxCell>
        <mxCell id="p6_uh3EXNi-pG8DUvjZT-83" value="NOME" style="rounded=0;whiteSpace=wrap;html=1;" vertex="1" parent="1">
          <mxGeometry x="516" y="-130" width="120" height="60" as="geometry" />
        </mxCell>
        <mxCell id="p6_uh3EXNi-pG8DUvjZT-84" value="ENDRECO" style="rounded=0;whiteSpace=wrap;html=1;" vertex="1" parent="1">
          <mxGeometry x="636" y="-130" width="120" height="60" as="geometry" />
        </mxCell>
        <mxCell id="p6_uh3EXNi-pG8DUvjZT-85" value="EMAIL" style="rounded=0;whiteSpace=wrap;html=1;" vertex="1" parent="1">
          <mxGeometry x="754" y="-130" width="120" height="60" as="geometry" />
        </mxCell>
        <mxCell id="p6_uh3EXNi-pG8DUvjZT-86" value="HORARIO" style="rounded=0;whiteSpace=wrap;html=1;" vertex="1" parent="1">
          <mxGeometry x="874" y="-130" width="120" height="60" as="geometry" />
        </mxCell>
        <mxCell id="p6_uh3EXNi-pG8DUvjZT-87" value="TRATADOR" style="text;html=1;align=center;verticalAlign=middle;resizable=0;points=[];autosize=1;strokeColor=none;fillColor=none;" vertex="1" parent="1">
          <mxGeometry x="-99" y="-115" width="90" height="30" as="geometry" />
        </mxCell>
        <mxCell id="p6_uh3EXNi-pG8DUvjZT-88" value="PK" style="text;html=1;align=center;verticalAlign=middle;resizable=0;points=[];autosize=1;strokeColor=none;fillColor=none;" vertex="1" parent="1">
          <mxGeometry x="120" y="-100" width="40" height="30" as="geometry" />
        </mxCell>
        <mxCell id="p6_uh3EXNi-pG8DUvjZT-90" value="FK" style="text;html=1;align=center;verticalAlign=middle;resizable=0;points=[];autosize=1;strokeColor=none;fillColor=none;" vertex="1" parent="1">
          <mxGeometry x="236" y="-100" width="40" height="30" as="geometry" />
        </mxCell>
        <mxCell id="p6_uh3EXNi-pG8DUvjZT-91" value="FK" style="text;html=1;align=center;verticalAlign=middle;resizable=0;points=[];autosize=1;strokeColor=none;fillColor=none;" vertex="1" parent="1">
          <mxGeometry x="360" y="-100" width="40" height="30" as="geometry" />
        </mxCell>
        <mxCell id="p6_uh3EXNi-pG8DUvjZT-93" value="" style="endArrow=classic;html=1;rounded=0;exitX=0.5;exitY=1;exitDx=0;exitDy=0;entryX=-0.013;entryY=0.383;entryDx=0;entryDy=0;entryPerimeter=0;" edge="1" parent="1" source="p6_uh3EXNi-pG8DUvjZT-80" target="p6_uh3EXNi-pG8DUvjZT-17">
          <mxGeometry width="50" height="50" relative="1" as="geometry">
            <mxPoint x="230" y="85" as="sourcePoint" />
            <mxPoint x="120" y="460" as="targetPoint" />
            <Array as="points">
              <mxPoint x="-30" />
              <mxPoint x="-200" y="100" />
              <mxPoint x="-250" y="320" />
              <mxPoint x="-120" y="430" />
            </Array>
          </mxGeometry>
        </mxCell>
        <mxCell id="p6_uh3EXNi-pG8DUvjZT-94" value="" style="endArrow=classic;html=1;rounded=0;exitX=0.5;exitY=1;exitDx=0;exitDy=0;" edge="1" parent="1" source="p6_uh3EXNi-pG8DUvjZT-81">
          <mxGeometry width="50" height="50" relative="1" as="geometry">
            <mxPoint x="350" y="85" as="sourcePoint" />
            <mxPoint x="190" y="600" as="targetPoint" />
            <Array as="points">
              <mxPoint x="930" y="-10" />
              <mxPoint x="1210" y="80" />
              <mxPoint x="1300" y="440" />
              <mxPoint x="1130" y="540" />
              <mxPoint x="890" y="570" />
              <mxPoint x="510" y="580" />
              <mxPoint x="310" y="580" />
            </Array>
          </mxGeometry>
        </mxCell>
        <mxCell id="p6_uh3EXNi-pG8DUvjZT-95" value="TEM" style="text;html=1;align=center;verticalAlign=middle;resizable=0;points=[];autosize=1;strokeColor=none;fillColor=none;" vertex="1" parent="1">
          <mxGeometry x="-74" y="-270" width="50" height="30" as="geometry" />
        </mxCell>
        <mxCell id="p6_uh3EXNi-pG8DUvjZT-96" value="ANOME" style="rounded=0;whiteSpace=wrap;html=1;" vertex="1" parent="1">
          <mxGeometry x="26" y="-285" width="120" height="60" as="geometry" />
        </mxCell>
        <mxCell id="p6_uh3EXNi-pG8DUvjZT-97" value="FK" style="text;html=1;align=center;verticalAlign=middle;resizable=0;points=[];autosize=1;strokeColor=none;fillColor=none;" vertex="1" parent="1">
          <mxGeometry x="110" y="-255" width="40" height="30" as="geometry" />
        </mxCell>
        <mxCell id="p6_uh3EXNi-pG8DUvjZT-98" value="&lt;div&gt;TNUMERO&lt;/div&gt;" style="rounded=0;whiteSpace=wrap;html=1;" vertex="1" parent="1">
          <mxGeometry x="146" y="-285" width="120" height="60" as="geometry" />
        </mxCell>
        <mxCell id="p6_uh3EXNi-pG8DUvjZT-99" value="FK" style="text;html=1;align=center;verticalAlign=middle;resizable=0;points=[];autosize=1;strokeColor=none;fillColor=none;" vertex="1" parent="1">
          <mxGeometry x="232" y="-255" width="40" height="30" as="geometry" />
        </mxCell>
        <mxCell id="p6_uh3EXNi-pG8DUvjZT-100" value="TDATA" style="rounded=0;whiteSpace=wrap;html=1;" vertex="1" parent="1">
          <mxGeometry x="266" y="-285" width="120" height="60" as="geometry" />
        </mxCell>
        <mxCell id="p6_uh3EXNi-pG8DUvjZT-101" value="FK" style="text;html=1;align=center;verticalAlign=middle;resizable=0;points=[];autosize=1;strokeColor=none;fillColor=none;" vertex="1" parent="1">
          <mxGeometry x="350" y="-255" width="40" height="30" as="geometry" />
        </mxCell>
        <mxCell id="p6_uh3EXNi-pG8DUvjZT-103" value="" style="endArrow=classic;html=1;rounded=0;exitX=0.5;exitY=1;exitDx=0;exitDy=0;entryX=0.5;entryY=0;entryDx=0;entryDy=0;" edge="1" parent="1" source="p6_uh3EXNi-pG8DUvjZT-98">
          <mxGeometry width="50" height="50" relative="1" as="geometry">
            <mxPoint x="200" y="-215" as="sourcePoint" />
            <mxPoint x="90" y="-130" as="targetPoint" />
          </mxGeometry>
        </mxCell>
        <mxCell id="p6_uh3EXNi-pG8DUvjZT-104" value="" style="endArrow=classic;html=1;rounded=0;exitX=0.25;exitY=1;exitDx=0;exitDy=0;entryX=0.011;entryY=0.623;entryDx=0;entryDy=0;entryPerimeter=0;" edge="1" parent="1" source="p6_uh3EXNi-pG8DUvjZT-96" target="jXPvE5CnvF_hMQH7UL35-1">
          <mxGeometry width="50" height="50" relative="1" as="geometry">
            <mxPoint x="226" y="-60" as="sourcePoint" />
            <mxPoint x="88" y="483" as="targetPoint" />
            <Array as="points">
              <mxPoint x="-220" y="-150" />
              <mxPoint x="-390" y="90" />
              <mxPoint x="-360" y="360" />
              <mxPoint x="-310" y="690" />
            </Array>
          </mxGeometry>
        </mxCell>
        <mxCell id="p6_uh3EXNi-pG8DUvjZT-105" value="TRATAMENTO" style="text;html=1;align=center;verticalAlign=middle;resizable=0;points=[];autosize=1;strokeColor=none;fillColor=none;" vertex="1" parent="1">
          <mxGeometry x="-110" y="-413" width="110" height="30" as="geometry" />
        </mxCell>
        <mxCell id="p6_uh3EXNi-pG8DUvjZT-106" value="&lt;u&gt;DATA&lt;/u&gt;" style="rounded=0;whiteSpace=wrap;html=1;" vertex="1" parent="1">
          <mxGeometry x="20" y="-430" width="120" height="60" as="geometry" />
        </mxCell>
        <mxCell id="p6_uh3EXNi-pG8DUvjZT-107" value="TIPO" style="rounded=0;whiteSpace=wrap;html=1;" vertex="1" parent="1">
          <mxGeometry x="140" y="-430" width="120" height="60" as="geometry" />
        </mxCell>
        <mxCell id="p6_uh3EXNi-pG8DUvjZT-108" value="PK" style="text;html=1;align=center;verticalAlign=middle;resizable=0;points=[];autosize=1;strokeColor=none;fillColor=none;" vertex="1" parent="1">
          <mxGeometry x="100" y="-400" width="40" height="30" as="geometry" />
        </mxCell>
        <mxCell id="p6_uh3EXNi-pG8DUvjZT-110" value="" style="endArrow=classic;html=1;rounded=0;exitX=0.5;exitY=0;exitDx=0;exitDy=0;entryX=0.5;entryY=1;entryDx=0;entryDy=0;" edge="1" parent="1" source="p6_uh3EXNi-pG8DUvjZT-100" target="p6_uh3EXNi-pG8DUvjZT-106">
          <mxGeometry width="50" height="50" relative="1" as="geometry">
            <mxPoint x="216" y="-215" as="sourcePoint" />
            <mxPoint x="100" y="-120" as="targetPoint" />
          </mxGeometry>
        </mxCell>
        <mxCell id="p6_uh3EXNi-pG8DUvjZT-111" value="DOACAO" style="text;html=1;align=center;verticalAlign=middle;resizable=0;points=[];autosize=1;strokeColor=none;fillColor=none;" vertex="1" parent="1">
          <mxGeometry x="-109" y="-570" width="80" height="30" as="geometry" />
        </mxCell>
        <mxCell id="p6_uh3EXNi-pG8DUvjZT-112" value="&lt;u&gt;ID&lt;/u&gt;" style="rounded=0;whiteSpace=wrap;html=1;" vertex="1" parent="1">
          <mxGeometry x="20" y="-585" width="120" height="60" as="geometry" />
        </mxCell>
        <mxCell id="p6_uh3EXNi-pG8DUvjZT-113" value="DID" style="rounded=0;whiteSpace=wrap;html=1;" vertex="1" parent="1">
          <mxGeometry x="140" y="-585" width="120" height="60" as="geometry" />
        </mxCell>
        <mxCell id="p6_uh3EXNi-pG8DUvjZT-114" value="QUANTIDADE" style="rounded=0;whiteSpace=wrap;html=1;" vertex="1" parent="1">
          <mxGeometry x="260" y="-585" width="120" height="60" as="geometry" />
        </mxCell>
        <mxCell id="p6_uh3EXNi-pG8DUvjZT-115" value="TIPO" style="rounded=0;whiteSpace=wrap;html=1;" vertex="1" parent="1">
          <mxGeometry x="380" y="-585" width="120" height="60" as="geometry" />
        </mxCell>
        <mxCell id="p6_uh3EXNi-pG8DUvjZT-116" value="DATA" style="rounded=0;whiteSpace=wrap;html=1;" vertex="1" parent="1">
          <mxGeometry x="500" y="-585" width="120" height="60" as="geometry" />
        </mxCell>
        <mxCell id="p6_uh3EXNi-pG8DUvjZT-117" value="PK" style="text;html=1;align=center;verticalAlign=middle;resizable=0;points=[];autosize=1;strokeColor=none;fillColor=none;" vertex="1" parent="1">
          <mxGeometry x="100" y="-555" width="40" height="30" as="geometry" />
        </mxCell>
        <mxCell id="p6_uh3EXNi-pG8DUvjZT-119" value="FK" style="text;html=1;align=center;verticalAlign=middle;resizable=0;points=[];autosize=1;strokeColor=none;fillColor=none;" vertex="1" parent="1">
          <mxGeometry x="226" y="-555" width="40" height="30" as="geometry" />
        </mxCell>
        <mxCell id="p6_uh3EXNi-pG8DUvjZT-121" value="" style="endArrow=classic;html=1;rounded=0;exitX=0.5;exitY=1;exitDx=0;exitDy=0;entryX=0;entryY=0;entryDx=0;entryDy=0;" edge="1" parent="1" source="p6_uh3EXNi-pG8DUvjZT-113" target="p6_uh3EXNi-pG8DUvjZT-66">
          <mxGeometry width="50" height="50" relative="1" as="geometry">
            <mxPoint x="336" y="-275" as="sourcePoint" />
            <mxPoint x="-330" y="-380" as="targetPoint" />
            <Array as="points">
              <mxPoint x="-100" y="-460" />
              <mxPoint x="-180" y="-290" />
              <mxPoint x="-170" y="-100" />
            </Array>
          </mxGeometry>
        </mxCell>
      </root>
    </mxGraphModel>
  </diagram>
</mxfile>
